HIERARCHY
ROOT hip
{
	OFFSET 0.000000 0.000000 0.000000 
	CHANNELS 6 Xposition Yposition Zposition Xrotation Zrotation Yrotation
	JOINT abdomen
	{
		OFFSET 0.000000 3.402643 0.000000 
		CHANNELS 3 Xrotation Zrotation Yrotation
		JOINT chest
		{
			OFFSET 0.000000 8.438565 -0.680529 
			CHANNELS 3 Xrotation Zrotation Yrotation
			JOINT neck
			{
				OFFSET 0.000000 10.207942 -0.272212 
				CHANNELS 3 Xrotation Zrotation Yrotation
				JOINT head
				{
					OFFSET 0.000000 3.130431 0.000000 
					CHANNELS 3 Xrotation Zrotation Yrotation
					End Site
					{
						OFFSET 0.000000 3.130435 0.000000 
					}
				}
			}
			JOINT lCollar
			{
				OFFSET 3.470700 6.669187 -0.816635 
				CHANNELS 3 Yrotation Zrotation Xrotation
				JOINT lShldr
				{
					OFFSET 3.198488 0.000000 0.000000 
					CHANNELS 3 Zrotation Yrotation Xrotation
					JOINT lForeArm
					{
						OFFSET 10.139888 0.000000 0.000000 
						CHANNELS 3 Yrotation Zrotation Xrotation
						JOINT lHand
						{
							OFFSET 8.370511 0.000000 0.000000 
							CHANNELS 3 Zrotation Yrotation Xrotation
							End Site
							{
								OFFSET 4.083176 0.000000 0.000000 
							}
						}
					}
				}
			}
			JOINT rCollar
			{
				OFFSET -3.470700 6.669187 -0.816635 
				CHANNELS 3 Yrotation Zrotation Xrotation
				JOINT rShldr
				{
					OFFSET -3.198488 0.000000 0.000000 
					CHANNELS 3 Zrotation Yrotation Xrotation
					JOINT rForeArm
					{
						OFFSET -10.139888 0.000000 0.000000 
						CHANNELS 3 Yrotation Zrotation Xrotation
						JOINT rHand
						{
							OFFSET -8.370511 0.000000 0.000000 
							CHANNELS 3 Zrotation Yrotation Xrotation
							End Site
							{
								OFFSET -4.083176 0.000000 0.000000 
							}
						}
					}
				}
			}
		}
	}
	JOINT lThigh
	{
		OFFSET 5.308129 -1.633274 1.361059 
		CHANNELS 3 Xrotation Zrotation Yrotation
		JOINT lShin
		{
			OFFSET -2.041588 -20.007561 0.000000 
			CHANNELS 3 Xrotation Zrotation Yrotation
			JOINT lFoot
			{
				OFFSET 0.000000 -19.190928 -1.224953 
				CHANNELS 3 Xrotation Yrotation Zrotation
				End Site
				{
					OFFSET 0.000000 -2.449906 4.627600 
				}
			}
		}
	}
	JOINT rThigh
	{
		OFFSET -5.308129 -1.633274 1.361059 
		CHANNELS 3 Xrotation Zrotation Yrotation
		JOINT rShin
		{
			OFFSET 2.041588 -20.007561 0.000000 
			CHANNELS 3 Xrotation Zrotation Yrotation
			JOINT rFoot
			{
				OFFSET 0.000000 -19.190928 -1.224953 
				CHANNELS 3 Xrotation Yrotation Zrotation
				End Site
				{
					OFFSET 0.000000 -2.449906 4.627600 
				}
			}
		}
	}
}
MOTION
Frames: 6
Frame Time: 0.033333
0.734114 42.811310 -47.900242 8.251953 -5.283204 38.134766 24.980467 3.974609 -5.654297 -14.521482 0.410156 -5.976492 -10.302734 0.400391 -14.316322 6.708985 7.734375 -14.422513 2.373047 9.072266 0.292969 -98.310547 -46.152344 75.432411 -54.736328 -3.154297 -34.384228 6.445313 12.412108 0.937500 -12.187499 -6.992188 0.264861 86.435547 44.492188 24.238281 57.070313 3.066406 -34.990234 -10.673829 -25.712891 3.681641 -21.630310 20.369829 21.841011 64.725342 0.590329 -3.582164 -23.684376 -27.549200 -18.966818 -46.024223 -11.435433 -10.442108 61.053204 -0.712924 3.158303 -16.354498 -1.541232 6.504698 
1.007632 42.512459 -45.248913 6.328125 -3.701172 38.124367 25.312500 2.910156 -5.761223 -13.466796 -0.117188 -5.781270 -9.218749 0.546875 -14.677643 7.060547 7.910156 -14.764280 2.197266 9.423828 0.310901 -97.333984 -45.537109 75.341797 -55.039063 -3.095703 -35.233849 6.279297 13.115233 0.957031 -12.041016 -6.269748 0.264683 86.894531 43.564453 23.737198 56.308590 3.173828 -35.966801 -10.830078 -26.562500 3.901884 -19.872330 18.425991 23.305212 62.977226 0.434544 -3.402740 -25.880180 -27.458628 -20.100126 -44.859974 -11.902822 -12.184467 68.433990 -1.054584 3.072516 -12.567919 1.819152 7.181638 
1.449930 41.813065 -42.496372 4.042969 -1.943359 37.079746 25.654297 1.806641 -5.703125 -12.773438 -1.005859 -5.410328 -7.832032 0.380859 -14.492170 7.773438 8.085938 -14.550782 2.343750 9.785157 0.439453 -96.347656 -44.785156 75.000000 -55.908207 -3.203125 -36.621098 6.298828 13.818360 0.959365 -12.587891 -5.888672 0.107422 88.183594 43.222656 25.106218 55.195313 3.281250 -36.445316 -10.312500 -27.666016 3.784528 -14.021691 17.025946 21.877937 61.582481 0.248274 -3.455078 -31.520212 -20.651371 -19.902128 -46.380634 -13.004900 -12.620177 77.206635 -1.777472 3.253036 -7.846767 5.933264 7.922794 
1.998140 40.885895 -39.724594 2.275391 -0.361328 35.322205 25.126953 1.074219 -5.712891 -12.255860 -1.884766 -5.224610 -6.835938 -0.263672 -13.574220 8.476562 8.623046 -13.632813 2.841797 10.673829 0.466941 -96.064453 -44.453129 74.182617 -56.240234 -3.271485 -37.812500 6.132813 14.521484 0.969246 -13.271484 -5.927735 0.205078 89.863281 43.818363 27.682547 53.535156 3.242188 -36.855469 -9.287109 -28.115236 3.457031 -6.688907 15.870934 19.528633 59.820148 0.240296 -3.541082 -37.493778 -13.112023 -17.862913 -49.806770 -15.064528 -11.069863 83.698349 -1.953117 3.525770 -7.511063 7.783252 7.949558 
2.531923 39.920841 -36.999138 1.572266 0.869141 34.101559 24.423830 0.996094 -6.093581 -12.080078 -2.939453 -5.400390 -6.894531 -1.611328 -12.607423 9.892579 9.501954 -12.683933 3.339844 11.386719 0.496119 -97.470703 -45.214844 74.179688 -55.839848 -3.212891 -39.257813 5.800781 15.234375 1.027957 -13.427734 -6.484375 0.234375 90.937500 45.869141 30.046074 51.552734 3.378906 -37.656822 -8.994141 -27.802734 3.320313 0.476115 15.013228 18.576382 57.403934 0.000388 -3.216645 -40.622093 -8.391168 -15.148610 -54.997921 -17.762817 -8.972129 84.047791 -2.294791 3.241742 -9.167540 8.709771 8.356393 
2.965073 39.056419 -34.363415 1.757813 1.757813 34.277344 23.710936 1.396484 -6.894531 -12.265625 -3.818360 -6.279947 -8.007812 -2.949219 -11.641128 11.308593 9.677734 -11.738282 3.330078 12.265625 0.476441 -101.250000 -47.998051 74.863289 -54.091797 -3.222656 -39.765079 4.501953 16.855467 0.722656 -13.076173 -6.826172 0.195313 90.458984 49.775429 30.371109 48.808594 3.183594 -36.943359 -9.404297 -26.367188 3.212890 5.740427 15.232973 17.042768 55.296459 -0.174796 -3.203344 -39.798824 -6.346021 -13.029171 -60.212994 -21.063864 -5.454188 76.507263 -1.415888 3.492633 -9.421615 8.727721 8.370779 
